<svg width="137" height="98" viewBox="0 0 137 98" fill="none" xmlns="http://www.w3.org/2000/svg">
<g clip-path="url(#clip0_102_175)">
<path d="M79.203 89.9984C79.203 90.8699 79.203 91.7413 79.203 92.6128V94.9103C79.203 95.7818 79.203 96.6532 79.203 97.5247L80.3129 97.6039V97.9208H78.4102C78.4102 96.8909 78.4102 95.861 78.4102 94.8311V92.5336C78.4102 91.5037 78.4102 90.4738 78.4102 89.4438H80.3129V89.7607L79.203 89.9984Z" fill="#231816"/>
<path d="M82.8501 93.0089C83.1672 92.2167 83.7222 91.7413 84.2771 91.7413C84.5943 91.7413 84.9114 91.8998 84.9907 92.2167C84.9907 92.6128 84.8321 92.8505 84.4357 92.8505C84.1979 92.8505 83.96 92.692 83.8014 92.5336L83.7222 92.4543C83.3257 92.7712 83.0879 93.1674 82.9293 93.8012V94.5142C82.9293 94.9895 82.9293 95.6233 82.9293 96.1779L83.7222 96.3363V96.6532H81.2644V96.3363L81.9779 96.2571C81.9779 95.7818 81.9779 95.0687 81.9779 94.5934V94.0388C81.9779 93.4843 81.9779 93.1674 81.9779 92.7712L81.2644 92.692V92.4543L82.7708 91.8998L82.9293 91.979L82.8501 93.0089Z" fill="#231816"/>
<path d="M88.0033 96.1779V96.4948H85.7041V96.1779L86.4176 96.0987C86.4176 95.6233 86.4176 94.9103 86.4176 94.435V93.8804C86.4176 93.3258 86.4176 93.0089 86.4176 92.6128L85.7041 92.5336V92.2959L87.2897 91.8206L87.4483 91.8998V93.1674V94.5142C87.4483 94.9895 87.4483 95.7025 87.4483 96.1779H88.0033ZM86.1798 89.9984C86.1798 89.6023 86.4969 89.3646 86.8141 89.3646C87.1312 89.3646 87.4483 89.6023 87.4483 89.9984C87.4483 90.3945 87.1312 90.6322 86.8141 90.6322C86.4969 90.6322 86.1798 90.3945 86.1798 89.9984Z" fill="#231816"/>
<path d="M92.9188 94.9103L92.8395 96.4948H89.0339V96.1779L91.8088 92.2167H89.8268L89.5096 93.3258L89.1132 93.2466L89.1925 91.8206H92.8395V92.1375L90.1439 96.0986H92.2052L92.5224 94.9103H92.9188Z" fill="#231816"/>
<path d="M97.6758 94.9103L97.5966 96.4948H93.791V96.1779L96.5659 92.2167H94.5838L94.2667 93.3258L93.8703 93.2466L93.9496 91.8206H97.5966V92.1375L94.901 96.0986H96.9623L97.2794 94.9103H97.6758Z" fill="#231816"/>
<path d="M100.292 94.9103C100.292 95.9402 100.292 96.9701 100.292 98H98.3894V97.6831L99.4994 97.6039C99.4994 96.7324 99.4994 95.861 99.4994 94.9895V92.692C99.4994 91.8206 99.4994 90.9491 99.4994 90.0776L98.3894 89.9984V89.5231H100.292C100.292 90.553 100.292 91.5829 100.292 92.6128V94.9103Z" fill="#231816"/>
<path d="M89.4304 69.5586C91.6198 69.5586 93.3945 67.7851 93.3945 65.5974C93.3945 63.4097 91.6198 61.6362 89.4304 61.6362C87.2411 61.6362 85.4663 63.4097 85.4663 65.5974C85.4663 67.7851 87.2411 69.5586 89.4304 69.5586Z" fill="black"/>
<path d="M89.4304 84.0565C91.6198 84.0565 93.3945 82.2831 93.3945 80.0954C93.3945 77.9076 91.6198 76.1342 89.4304 76.1342C87.2411 76.1342 85.4663 77.9076 85.4663 80.0954C85.4663 82.2831 87.2411 84.0565 89.4304 84.0565Z" fill="black"/>
<path d="M115.118 75.8966L129.944 57.992V57.9127V50.941H103.701V59.0219H117.259L102.433 77.0057V84.0566H130.34V75.8966H115.118Z" fill="black"/>
<path d="M42.6539 61.1609V58.3881H33.5364V84.0566H43.1295V72.6484C43.1295 70.5885 43.6052 69.1625 44.4773 68.3703C45.4287 67.578 46.5387 67.1027 48.0451 67.1027C48.3622 67.1027 48.6793 67.1027 49.0757 67.1819C49.3929 67.1819 49.7893 67.2611 50.1857 67.3404V57.9127C48.0451 57.9127 46.1423 58.3881 44.6359 59.418C43.8431 59.8933 43.2088 60.4479 42.6539 61.1609Z" fill="black"/>
<path d="M75.4768 63.3792C74.2876 61.3986 72.7812 59.8933 70.7991 58.9426C68.8964 57.9127 66.7557 57.4374 64.4565 57.4374C61.9988 57.4374 59.6996 57.9919 57.7175 59.1011C55.7355 60.2102 54.1498 61.7947 53.0399 63.7753C51.9299 65.7559 51.2957 68.0534 51.2957 70.6678C51.2957 73.2029 51.8506 75.5004 53.0399 77.481C54.2291 79.4616 55.8148 81.1253 57.9554 82.2345C60.096 83.4228 62.5538 83.9774 65.3286 83.9774C67.6278 83.9774 69.6099 83.6605 71.2748 82.9475C72.9398 82.2345 74.2876 81.2046 75.4768 79.8578L70.482 74.2328C69.6892 74.8666 68.9756 75.342 68.3414 75.6589C67.6278 75.9758 66.7557 76.1342 65.7251 76.1342C64.6944 76.1342 63.8223 75.9758 63.0295 75.5797C62.3159 75.1835 61.7609 74.629 61.3645 73.8367C61.2852 73.5991 61.206 73.4406 61.1267 73.2029H77.221C77.221 72.8068 77.3003 72.4107 77.3003 71.9354C77.3003 71.46 77.3796 71.0639 77.3796 70.6678C77.221 67.8157 76.5867 65.3598 75.4768 63.3792ZM62.4745 65.2013C63.0295 64.8052 63.743 64.6468 64.5358 64.6468C65.3286 64.6468 66.0422 64.8052 66.5972 65.2013C67.1521 65.5974 67.6278 66.152 67.945 66.865C68.1035 67.2611 68.2621 67.6573 68.3414 68.0534H60.8888C60.9681 67.578 61.0474 67.1819 61.206 66.865C61.4438 66.152 61.9195 65.5974 62.4745 65.2013Z" fill="black"/>
<path d="M77.1417 28.2037C76.7453 28.1245 76.5867 28.5999 76.5867 28.8375C75.4768 35.017 72.7019 43.4147 69.4513 48.1682C69.372 47.059 69.372 44.9992 69.6891 42.9394C70.2441 39.9289 70.6405 39.2159 70.8784 39.1367C71.0369 39.1367 71.1162 39.0574 71.1955 39.0574C71.2748 39.0574 71.5126 39.0574 71.5919 38.899L71.7505 38.6613L71.6712 38.4236C71.1162 37.3937 68.817 36.5223 67.7864 36.9184C67.7071 36.9184 67.39 37.0768 67.1521 37.4729C66.6764 38.3444 66.4386 39.612 65.8836 42.0679L65.8043 42.3056C64.3772 46.346 62.7916 49.5942 61.7609 51.1787C61.6816 48.6435 62.633 43.8109 63.2673 41.8303C63.5844 40.8004 63.9015 40.7211 63.9015 40.6419C63.9808 40.6419 64.1394 40.6419 64.1394 40.6419H64.4565L64.6944 40.1666L64.5358 40.0081C63.9808 38.899 61.7609 38.0275 60.651 38.5029C60.5717 38.5821 60.1753 38.7405 60.0167 39.1367C59.4617 40.1666 59.0653 41.2757 58.7482 43.0978C58.5103 43.2563 58.1932 43.494 57.8761 43.6524C56.8454 44.207 55.8147 43.9693 54.5462 43.0186C54.3084 42.8602 53.6741 42.7017 53.1984 42.9394C52.5641 43.2563 51.8506 44.9992 51.9299 45.3953C51.9299 45.9499 52.6434 46.7421 52.9606 47.1383C51.9299 52.0502 49.155 59.0219 47.2522 59.0219C47.1729 59.0219 46.9351 58.7842 46.8558 58.2296C46.2215 54.823 48.9964 44.0485 54.2291 41.9887C54.3876 41.9887 54.5462 41.9887 54.7048 41.9887C54.8633 41.9887 55.0219 41.9095 55.1805 41.8303C55.339 41.751 55.6562 41.6718 55.5769 41.3549C55.5769 41.1965 55.4976 41.038 55.1805 40.9588C54.4669 40.7211 53.5155 40.8004 52.4849 41.1965C49.6307 42.3056 46.6972 45.1577 44.8737 48.6435C44.1602 49.9903 43.6052 51.3371 43.2881 52.6047C42.0196 55.2983 39.879 59.7349 38.6104 61.0817C38.6897 58.3881 39.4033 53.4762 40.6718 47.6136C41.3853 44.4447 42.0196 41.6718 42.8124 38.9782C42.971 38.5821 43.0503 38.1067 43.2088 37.6314C43.7638 35.6508 44.7152 32.3234 45.6666 32.4026C45.9837 32.4818 46.2215 32.3234 46.2215 32.1649C46.2215 32.0857 46.3801 31.8481 46.1423 31.6104C45.6666 31.135 43.7638 30.422 42.1782 31.135C41.7817 31.2935 41.3853 31.7688 40.9096 32.5611C40.3547 33.591 39.7997 35.0962 39.1654 37.1561C38.1347 40.9588 37.2626 44.3654 36.6284 47.6136C34.8842 47.5344 31.7129 48.089 28.7001 49.2773C27.2731 49.8319 23.0711 51.8917 19.4241 54.1892C14.5879 57.1997 12.6058 59.418 13.2401 61.0817C13.7158 62.27 15.3807 63.2207 15.8564 62.9831C16.0942 62.9038 16.1735 62.6662 16.0942 62.3493C15.6185 61.0817 22.3575 55.2983 29.2551 51.4956C25.4496 59.1011 16.9663 74.5498 9.75165 78.2733C8.40384 78.9863 7.29389 79.1447 6.50107 78.8278C5.78752 78.5109 5.31183 77.8772 4.91542 76.6888C1.18915 65.5182 14.6672 39.6912 24.181 35.8092C24.9739 35.4924 25.7667 35.4131 26.4009 35.4923C27.1145 35.6508 27.5902 35.9677 27.828 36.6015C28.3037 37.8691 27.9866 39.9289 26.7974 42.0679C25.9253 43.7316 24.6567 45.1577 23.6261 45.8707C23.7053 45.3953 23.8639 44.6823 23.8639 44.4447L24.4189 42.781L23.2297 43.9693C22.2783 44.92 21.4062 46.9798 21.8819 48.0097C22.0404 48.4059 22.4368 48.7227 23.0711 48.9604C23.7053 49.1981 24.3396 49.2773 24.736 49.0396C28.938 47.3759 32.1093 40.1666 30.3651 35.9677C29.2551 33.1949 25.846 33.3533 23.7846 34.1455C16.5699 37.2353 7.92815 47.2967 3.25049 58.3088C-0.158655 66.4689 -0.951479 73.7575 1.18915 78.8278C1.90269 80.4915 3.01264 81.6799 4.43972 82.2345C5.94609 82.789 7.76959 82.7098 9.59308 81.8384C13.795 79.8578 18.7106 74.1536 24.4189 64.4091C23.2297 69.7171 22.6747 77.481 24.6567 82.3137C24.8153 82.7098 25.0531 83.0267 25.4496 83.2644C25.6874 83.4228 25.9253 83.5021 26.0838 83.5021C26.2424 83.5021 26.3217 83.5021 26.4009 83.4228C26.7974 83.2644 26.8766 82.9475 26.7181 82.7098C26.6388 82.5514 26.5595 82.4721 26.4802 82.3929C26.3217 81.9968 25.9253 80.3331 25.9253 78.2733C25.9253 72.3315 28.0659 60.6063 32.7435 53.0801C33.7742 51.3371 34.4085 51.1787 34.6463 51.2579C35.0427 51.4164 35.2013 51.2579 35.2806 51.0995C35.3599 51.0202 35.4391 50.7826 35.2806 50.4657C35.0427 50.1488 34.4878 49.6734 33.7742 49.3565C34.4878 49.1189 35.4391 48.8812 36.232 48.7227C35.2013 54.1892 34.0913 61.0817 34.8049 62.8246C34.9635 63.2207 35.122 63.3792 35.2013 63.4584C35.7563 64.013 36.8662 64.4883 37.3419 64.4883C37.5005 64.4883 37.5798 64.4883 37.7383 64.4883C38.1347 64.4883 38.5312 64.4091 38.9276 64.013C39.9582 63.0623 41.5439 59.8933 42.8917 56.7244C42.971 57.4374 43.1295 58.0712 43.3674 58.705C43.8431 59.8933 45.1116 60.844 46.618 60.844C47.0144 60.844 47.3315 60.7648 47.7279 60.6856C51.8506 59.3388 57.004 51.3371 56.3697 46.0291C56.6075 45.9499 56.9247 45.8707 57.2418 45.7915C57.5589 45.633 57.9553 45.4746 58.3518 45.2369C57.8761 48.5643 57.7175 52.3671 58.5103 54.11L58.5896 54.1892C58.7482 54.4269 60.0167 55.4568 60.9681 55.4568C61.1266 55.4568 61.2852 55.4568 61.3645 55.3776C61.8402 55.2191 62.3159 54.2684 63.2673 52.6047L63.4258 52.367C64.1394 51.0995 65.0115 48.7227 65.8043 46.5837C65.8043 48.089 65.9629 49.8319 66.5971 50.8618C66.835 51.2579 68.4999 52.4463 69.6099 51.9709C71.2748 51.3371 77.6967 37.0768 77.5381 28.8375C77.4588 28.6791 77.5381 28.283 77.1417 28.2037Z" fill="url(#paint0_linear_102_175)"/>
<path d="M136.683 12.5174C136.445 11.8836 134.701 11.0914 134.067 11.0914C132.957 11.1706 131.292 13.072 129.785 15.4487L129.706 15.3695C129.31 14.4188 127.407 13.5473 126.455 13.8642C126.376 13.9435 126.059 14.0227 125.9 14.4188C125.425 15.2903 124.711 17.3501 124.394 18.5384C123.046 23.2919 121.778 28.996 121.144 33.9871C120.668 33.9871 120.271 33.7494 120.113 33.2741C118.289 28.7583 120.589 17.7462 123.601 8.95235C125.187 4.27813 126.455 2.37676 127.01 2.13909C127.248 2.05986 127.407 2.05986 127.645 2.13909L129.151 3.24822L128.2 1.66374C127.407 0.316938 125.583 -0.316854 124.236 0.237714C123.443 0.554609 122.571 1.98064 122.253 2.61443C121.461 4.19891 120.351 6.8133 119.241 10.2199C118.21 13.1512 116.862 17.1124 115.832 19.4891C112.898 25.9063 105.287 38.5029 102.909 40.4042C102.909 38.899 104.019 34.9378 105.049 31.0558C107.19 23.3711 109.806 13.785 108.3 10.0615C107.269 7.44709 104.97 6.57563 102.116 7.68476C93.6326 11.0914 81.0266 28.2038 83.7222 34.9378C84.1979 36.0469 85.3079 37.0768 86.9728 36.3638C87.9242 35.9677 88.3999 35.017 88.6378 34.5417L89.1135 33.3533L88.0035 34.0663C87.8449 34.1456 87.3692 34.4625 87.0521 34.6209C86.8935 34.7001 86.8143 34.6209 86.735 34.6209C86.6557 34.5417 86.5764 34.4625 86.4971 34.3832C86.0214 33.1156 87.6864 27.9661 91.2541 21.7866C95.1389 15.1318 99.4994 10.3784 102.909 8.95235C103.622 8.63545 104.256 8.55623 104.732 8.55623C105.287 8.63545 105.604 8.87312 105.842 9.42769C106.556 11.2498 104.574 17.7462 102.671 24.0841C100.451 31.6104 98.0724 39.3743 99.1823 42.0679C99.4994 42.8602 101.006 43.6524 101.957 43.6524C102.116 43.6524 102.354 43.6524 102.512 43.5732C106.318 42.068 113.215 28.3622 116.149 22.1035C115.673 25.827 115.514 30.6597 116.704 33.4325C117.179 34.6209 117.893 35.3339 118.924 35.5716C119.399 35.73 120.034 35.73 120.589 35.6508C120.271 39.1367 120.271 42.1472 120.826 44.207C121.144 45.3161 121.857 46.1876 122.729 46.4253C122.967 46.5045 123.126 46.5045 123.363 46.5045C123.918 46.5045 124.553 46.2668 125.028 45.7915L126.138 44.7616L124.632 45.1577C124.394 45.2369 124.394 45.1577 124.315 45.1577C124.077 44.9992 123.998 44.4447 123.918 44.207C123.284 41.3549 123.681 37.3145 124.315 33.3533C124.949 32.5611 125.425 31.7688 125.504 31.4519L126.455 29.3129L124.87 31.0558C124.791 31.135 124.711 31.2143 124.711 31.2935C125.108 29.3129 125.504 27.4115 125.9 25.7478C128.358 19.4891 131.45 15.3695 132.719 14.0227C132.56 16.954 130.42 25.114 127.803 26.1439C127.407 26.3024 126.852 26.0647 126.773 25.9063L126.535 25.5101L126.138 25.6686C125.9 25.7478 125.742 26.0647 125.9 26.3816C126.376 27.6492 128.358 27.8869 129.785 27.3323C134.622 25.6686 137.951 15.6864 136.683 12.5174ZM128.2 18.1423C128.755 16.3202 129.072 15.9241 129.151 15.9241H129.23C129.23 15.9241 129.23 15.9241 129.31 15.9241C129.389 15.9241 129.468 15.9241 129.547 15.9241C129.072 16.6371 128.596 17.4293 128.2 18.1423Z" fill="url(#paint1_linear_102_175)"/>
</g>
<defs>
<linearGradient id="paint0_linear_102_175" x1="-63.1483" y1="94.4945" x2="163.393" y2="2.97293" gradientUnits="userSpaceOnUse">
<stop stop-color="#B36D39"/>
<stop offset="0.1846" stop-color="#F6E9AB"/>
<stop offset="0.5216" stop-color="#DB9D5F"/>
<stop offset="0.7529" stop-color="#F5E5A9"/>
<stop offset="0.8275" stop-color="#EACF8C"/>
<stop offset="0.9216" stop-color="#DEB97C"/>
<stop offset="1" stop-color="#C68449"/>
</linearGradient>
<linearGradient id="paint1_linear_102_175" x1="-61.833" y1="97.7499" x2="164.708" y2="6.22841" gradientUnits="userSpaceOnUse">
<stop stop-color="#B36D39"/>
<stop offset="0.1846" stop-color="#F6E9AB"/>
<stop offset="0.5216" stop-color="#DB9D5F"/>
<stop offset="0.7529" stop-color="#F5E5A9"/>
<stop offset="0.8275" stop-color="#EACF8C"/>
<stop offset="0.9216" stop-color="#DEB97C"/>
<stop offset="1" stop-color="#C68449"/>
</linearGradient>
<clipPath id="clip0_102_175">
<rect width="137" height="98" fill="white"/>
</clipPath>
</defs>
</svg>
